<svg xmlns="http://www.w3.org/2000/svg" width="1280" height="610" viewBox="0 0 1280 610"><defs><marker id="arrow" viewBox="0 0 10 10" refX="9" refY="5" markerWidth="5" markerHeight="5" orient="auto-start-reverse"><path d="M0 0L10 5L0 10Z" fill="#63758A"/></marker></defs><rect width="1280" height="610" fill="white"/><text x="640" y="47" font-family="Helvetica Neue,Arial,sans-serif" font-size="36" font-weight="700" text-anchor="middle" dominant-baseline="middle" fill="#172C36"><tspan x="640" dy="0">Core algorithm design</tspan></text><text x="640" y="101" font-family="Helvetica Neue,Arial,sans-serif" font-size="24" font-weight="400" text-anchor="middle" dominant-baseline="middle" fill="#172C36"><tspan x="640" dy="0">Facts feed rules directly. Patterns provide optional assistance.</tspan></text><text x="140" y="354" font-family="Helvetica Neue,Arial,sans-serif" font-size="25" font-weight="400" text-anchor="middle" dominant-baseline="middle" fill="#172C36"><tspan x="140" dy="0">Judgment</tspan><tspan x="140" dy="30">passages</tspan></text><rect x="250" y="200" width="245" height="108" rx="10" fill="#EAF0F6" stroke="#63758A" stroke-width="2"/><text x="372.5" y="237.2" font-family="Helvetica Neue,Arial,sans-serif" font-size="28" font-weight="700" text-anchor="middle" dominant-baseline="middle" fill="#172C36"><tspan x="372.5" dy="0">A</tspan><tspan x="372.5" dy="33.6">Canonical facts</tspan></text><rect x="570" y="200" width="245" height="108" rx="10" fill="#EAF0F6" stroke="#63758A" stroke-width="2"/><text x="692.5" y="237.2" font-family="Helvetica Neue,Arial,sans-serif" font-size="28" font-weight="700" text-anchor="middle" dominant-baseline="middle" fill="#172C36"><tspan x="692.5" dy="0">B</tspan><tspan x="692.5" dy="33.6">Fact patterns</tspan></text><rect x="890" y="200" width="300" height="108" rx="10" fill="#EAF0F6" stroke="#63758A" stroke-width="2"/><text x="1040" y="237.2" font-family="Helvetica Neue,Arial,sans-serif" font-size="28" font-weight="700" text-anchor="middle" dominant-baseline="middle" fill="#172C36"><tspan x="1040" dy="0">C</tspan><tspan x="1040" dy="33.6">Legal arguments</tspan></text><text x="1170" y="149" font-family="Helvetica Neue,Arial,sans-serif" font-size="24" font-weight="400" text-anchor="middle" dominant-baseline="middle" fill="#172C36"><tspan x="1170" dy="0">Authorities</tspan></text><text x="372.5" y="357" font-family="Helvetica Neue,Arial,sans-serif" font-size="25" font-weight="400" text-anchor="middle" dominant-baseline="middle" fill="#172C36"><tspan x="372.5" dy="0">Which meanings</tspan><tspan x="372.5" dy="30">can share a type?</tspan></text><text x="692" y="357" font-family="Helvetica Neue,Arial,sans-serif" font-size="25" font-weight="400" text-anchor="middle" dominant-baseline="middle" fill="#172C36"><tspan x="692" dy="0">Which structures</tspan><tspan x="692" dy="30">repeat across cases?</tspan></text><text x="1040" y="357" font-family="Helvetica Neue,Arial,sans-serif" font-size="25" font-weight="400" text-anchor="middle" dominant-baseline="middle" fill="#172C36"><tspan x="1040" dy="0">Which conclusions</tspan><tspan x="1040" dy="30">survive objections?</tspan></text><text x="853" y="183" font-family="Helvetica Neue,Arial,sans-serif" font-size="19" font-weight="400" text-anchor="middle" dominant-baseline="middle" fill="#172C36"><tspan x="853" dy="0">optional</tspan></text><text x="693" y="512" font-family="Helvetica Neue,Arial,sans-serif" font-size="24" font-weight="400" text-anchor="middle" dominant-baseline="middle" fill="#172C36"><tspan x="693" dy="0">Facts also enter C directly</tspan></text><text x="640" y="573.5" font-family="Helvetica Neue,Arial,sans-serif" font-size="21" font-weight="400" text-anchor="middle" dominant-baseline="middle" fill="#172C36"><tspan x="640" dy="0">Blue boxes: modules. Dashed arrow: optional assistance.</tspan></text><path d="M92,210H140L156,226V294H92Z M140,210V226H156" fill="white" stroke="#63758A" stroke-width="2"/><rect x="1000" y="130" width="35" height="50" rx="0" fill="white" stroke="#63758A" stroke-width="2"/><rect x="1035" y="130" width="35" height="50" rx="0" fill="white" stroke="#63758A" stroke-width="2"/><polyline points="164,254 250,254" fill="none" stroke="#63758A" stroke-width="2"  marker-end="url(#arrow)"/><polyline points="495,254 570,254" fill="none" stroke="#63758A" stroke-width="2"  marker-end="url(#arrow)"/><polyline points="815,254 890,254" fill="none" stroke="#63758A" stroke-width="2" stroke-dasharray="6 4" marker-end="url(#arrow)"/><polyline points="1040,180 1040,200" fill="none" stroke="#63758A" stroke-width="2"  marker-end="url(#arrow)"/><polyline points="495,290 528,290 528,480 858,480 858,290 890,290" fill="none" stroke="#63758A" stroke-width="2"  marker-end="url(#arrow)"/></svg>